<?xml version="1.0" encoding="utf-8"?>
<!-- Generator: Adobe Illustrator 16.0.0, SVG Export Plug-In . SVG Version: 6.00 Build 0)  -->
<!DOCTYPE svg PUBLIC "-//W3C//DTD SVG 1.1//EN" "http://www.w3.org/Graphics/SVG/1.1/DTD/svg11.dtd">
<svg version="1.1" id="Layer_1" xmlns="http://www.w3.org/2000/svg" xmlns:xlink="http://www.w3.org/1999/xlink" x="0px" y="0px"
	 width="16.157px" height="16.157px" viewBox="0 0 16.157 16.157" enable-background="new 0 0 16.157 16.157" xml:space="preserve">
<g>
	<path fill="#FFFFFF" d="M13.478,6.959l-1.704-0.983l-0.455-0.264c-0.092-0.053-0.208-0.057-0.306,0
		c-0.099,0.058-0.152,0.159-0.152,0.266V8.23c0,0.281-0.049,0.562-0.142,0.826c-0.052,0.145-0.115,0.284-0.192,0.419
		c-0.218,0.378-0.532,0.692-0.911,0.91l-3.933,2.271c0.08,0.138,0.117,0.288,0.117,0.437v2.191c0,0.171,0.092,0.33,0.239,0.416
		c0.074,0.043,0.154,0.064,0.239,0.064c0.084,0,0.168-0.022,0.24-0.064l6.149-3.551c0.378-0.218,0.692-0.534,0.91-0.911
		c0.219-0.378,0.333-0.809,0.333-1.245V8.12V7.715c0-0.147-0.037-0.299-0.115-0.436C13.717,7.141,13.606,7.033,13.478,6.959z"/>
	<path fill="#FFFFFF" d="M5.277,15.285v-1.889c0-0.148-0.037-0.299-0.117-0.438C5.08,12.821,4.97,12.713,4.841,12.64l-2.16-1.247
		c-0.091-0.054-0.207-0.058-0.307,0c-0.097,0.057-0.151,0.158-0.151,0.265v1.863c0,0.347,0.181,0.684,0.502,0.87l3.054,1.763
		C5.455,15.968,5.277,15.631,5.277,15.285z"/>
	<path fill="#FFFFFF" d="M13.673,2.355c-0.074-0.043-0.154-0.064-0.239-0.064c-0.084,0-0.168,0.022-0.24,0.064l-2.333,1.347
		l2.595,1.499c0.093,0.053,0.208,0.057,0.307,0c0.098-0.056,0.151-0.159,0.151-0.264V2.771C13.912,2.6,13.822,2.44,13.673,2.355z"/>
	<path fill="#FFFFFF" d="M2.681,9.648l2.138,1.233c0.091,0.054,0.207,0.058,0.306,0c0.099-0.057,0.152-0.158,0.152-0.265V8.062
		c0-0.514,0.129-1.031,0.403-1.506C5.953,6.08,6.339,5.708,6.782,5.452l6.149-3.551c0.151-0.088,0.325-0.135,0.502-0.135
		c0.171,0,0.343,0.044,0.501,0.135l-3.053-1.765c-0.158-0.091-0.331-0.134-0.501-0.134c-0.178,0-0.351,0.046-0.504,0.134
		L3.729,3.689C3.284,3.945,2.901,4.316,2.625,4.792C2.352,5.267,2.223,5.786,2.223,6.298v2.557c0,0.155,0.039,0.312,0.123,0.458
		C2.429,9.457,2.546,9.57,2.681,9.648z"/>
</g>
</svg>
