<?xml version="1.0" encoding="utf-8"?>
<!-- Generator: Adobe Illustrator 16.0.0, SVG Export Plug-In . SVG Version: 6.00 Build 0)  -->
<!DOCTYPE svg PUBLIC "-//W3C//DTD SVG 1.1//EN" "http://www.w3.org/Graphics/SVG/1.1/DTD/svg11.dtd">
<svg version="1.1" id="Layer_1" xmlns="http://www.w3.org/2000/svg" xmlns:xlink="http://www.w3.org/1999/xlink" x="0px" y="0px"
	 width="682.666px" height="682.583px" viewBox="0 0 682.666 682.583" enable-background="new 0 0 682.666 682.583"
	 xml:space="preserve">
<g>
	<path fill="#231F20" d="M255.156,663.419c3.137,1.808,6.545,2.73,10.12,2.73c3.573,0,7.098-0.942,10.176-2.73l259.894-150.083
		c15.967-9.224,29.278-22.534,38.483-38.506c9.219-15.974,14.104-34.157,14.104-52.599v-79.178v-17.126
		c0-6.267-1.581-12.624-4.94-18.443c-3.357-5.819-8.071-10.364-13.496-13.499l-72.005-41.583l-19.255-11.121
		c-3.856-2.227-8.766-2.388-12.903,0c-4.133,2.39-6.453,6.724-6.453,11.18v95.246c0,11.893-2.03,23.715-5.955,34.891
		c-2.157,6.12-4.87,12.041-8.133,17.704c-9.218,15.972-22.531,29.288-38.493,38.507l-166.226,95.993l0.004,0.002
		c3.362,5.819,4.941,12.176,4.941,18.443v92.595C245.022,653.073,248.907,659.804,255.156,663.419z"/>
	<path fill="#231F20" d="M115.044,608.058l129.054,74.524c-13.588-7.837-21.208-22.073-21.208-36.739v-79.821
		c0-6.266-1.58-12.625-4.938-18.44c-3.358-5.819-8.076-10.365-13.496-13.502l-91.259-52.701c-3.861-2.226-8.771-2.387-12.904,0
		c-4.14,2.393-6.457,6.728-6.457,11.183v78.74C93.839,585.963,101.456,600.201,115.044,608.058z"/>
	<path fill="#231F20" d="M587.929,116.976c0-7.23-3.889-13.979-10.159-17.595c-3.138-1.807-6.543-2.728-10.123-2.728
		c-3.56,0-7.099,0.939-10.173,2.728l-98.596,56.948l109.694,63.347c3.859,2.23,8.77,2.39,12.903,0
		c4.139-2.389,6.457-6.723,6.457-11.178L587.929,116.976L587.929,116.976z"/>
	<path fill="#231F20" d="M113.2,407.609l90.334,52.167c3.863,2.226,8.771,2.392,12.904-0.002c4.139-2.391,6.452-6.72,6.452-11.179
		V340.571c0-21.649,5.456-43.579,17.057-63.662c11.592-20.084,27.855-35.798,46.587-46.601L546.409,80.223
		c6.456-3.727,13.79-5.701,21.239-5.701c7.207,0,14.493,1.847,21.183,5.701L459.778,5.68C453.104,1.825,445.802,0,438.612,0
		c-7.462,0-14.806,1.953-21.255,5.68L157.48,155.782c-18.729,10.804-34.994,26.517-46.588,46.6
		c-11.594,20.083-17.056,42.012-17.056,63.663v108.024c0,6.58,1.664,13.25,5.192,19.362
		C102.557,399.541,107.5,404.317,113.2,407.609z"/>
</g>
</svg>
