<?xml version="1.0" encoding="utf-8"?>
<!DOCTYPE svg PUBLIC "-//W3C//DTD SVG 1.1//EN" "http://www.w3.org/Graphics/SVG/1.1/DTD/svg11.dtd">
<svg version="1.1" id="Layer_1" xmlns="http://www.w3.org/2000/svg" xmlns:xlink="http://www.w3.org/1999/xlink" x="0px" y="0px"
	 width="11.69px" height="16.15px" viewBox="0 0 11.69 16.15" enable-background="new 0 0 11.69 16.15" xml:space="preserve">
<g>
	<path fill="#FFFFFF" d="M11.255,6.956L9.551,5.972L9.096,5.709c-0.092-0.053-0.208-0.057-0.306,0
		C8.692,5.766,8.638,5.868,8.638,5.974v2.253c0,0.282-0.049,0.562-0.142,0.826C8.445,9.198,8.381,9.338,8.304,9.472
		c-0.218,0.378-0.532,0.693-0.911,0.911L3.46,12.654c0.08,0.138,0.117,0.288,0.117,0.437v2.191c0,0.171,0.092,0.33,0.24,0.416
		c0.074,0.043,0.154,0.064,0.239,0.064c0.084,0,0.168-0.022,0.24-0.064l6.15-3.551c0.377-0.218,0.692-0.534,0.91-0.911
		c0.218-0.378,0.333-0.809,0.333-1.245V8.117V7.712c0-0.148-0.037-0.299-0.116-0.436C11.494,7.138,11.383,7.03,11.255,6.956z"/>
	<path fill="#FFFFFF" d="M3.054,15.282v-1.889c0-0.148-0.037-0.299-0.117-0.437c-0.079-0.138-0.19-0.246-0.319-0.319L0.458,11.39
		c-0.091-0.053-0.207-0.057-0.306,0C0.055,11.447,0,11.549,0,11.655v1.863c0,0.347,0.181,0.684,0.502,0.87l3.054,1.763
		C3.233,15.965,3.054,15.628,3.054,15.282z"/>
	<path fill="#FFFFFF" d="M11.45,2.352c-0.074-0.043-0.154-0.064-0.239-0.064c-0.084,0-0.168,0.022-0.24,0.064L8.638,3.699
		l2.595,1.499c0.092,0.053,0.208,0.057,0.306,0c0.098-0.056,0.152-0.159,0.152-0.264V2.768C11.69,2.597,11.599,2.437,11.45,2.352z"
		/>
	<path fill="#FFFFFF" d="M0.458,9.645l2.138,1.234c0.091,0.053,0.207,0.057,0.306,0c0.098-0.057,0.152-0.159,0.152-0.265V8.059
		c0-0.513,0.129-1.031,0.403-1.506C3.731,6.077,4.116,5.705,4.56,5.449l6.149-3.551c0.152-0.088,0.325-0.135,0.502-0.135
		c0.171,0,0.343,0.044,0.501,0.135L8.659,0.134C8.501,0.043,8.328,0,8.158,0C7.981,0,7.808,0.046,7.655,0.134L1.506,3.686
		C1.062,3.942,0.678,4.313,0.403,4.789C0.129,5.264,0,5.783,0,6.295v2.556c0,0.156,0.039,0.313,0.123,0.458
		C0.206,9.454,0.323,9.567,0.458,9.645z"/>
</g>
</svg>
